<?xml version="1.0" encoding="UTF-8"?>
<svg width="78px" height="78px" viewBox="0 0 78 78" xmlns="http://www.w3.org/2000/svg" xmlns:xlink="http://www.w3.org/1999/xlink" version="1.1">
 <!-- Generated by Pixelmator Pro 1.6.1 -->
 <g id="rocket"/>
 <g id="logo">
  <g id="group">
   <path id="Path" d="M67.312 15.401 C67.312 17.929 65.262 19.981 62.732 19.981 60.204 19.981 58.154 17.929 58.154 15.401 58.154 12.873 60.204 10.82 62.732 10.82 65.262 10.82 67.312 12.873 67.312 15.401 Z M78 1.66 C78 0.802 77.235 0.133 76.375 0.133 59.771 0.133 50.661 3.951 38.736 15.831 36.017 18.598 33.202 21.747 30.339 25.135 L12.259 26.089 C11.781 26.136 11.306 26.423 11.019 26.853 L0.332 45.175 C-0.003 45.748 0.093 46.508 0.57 47.034 L3.624 50.09 C3.911 50.374 4.341 50.517 4.723 50.517 4.867 50.517 5.01 50.517 5.151 50.467 L18.319 46.415 31.725 59.822 27.671 72.992 C27.527 73.518 27.671 74.091 28.053 74.516 L31.107 77.57 C31.441 77.857 31.821 78 32.203 78 32.49 78 32.726 77.947 32.968 77.811 L51.287 67.121 C51.717 66.837 52.001 66.357 52.054 65.884 L53.008 47.798 C56.396 44.936 59.545 42.121 62.312 39.4 73.611 28.045 78 17.501 78 1.66 Z" fill="#8cc9f0" fill-opacity="1" stroke="none"/>
  </g>
 </g>
</svg>
