<?xml version="1.0" encoding="UTF-8"?>
<svg width="333px" height="173px" viewBox="0 0 333 173" xmlns="http://www.w3.org/2000/svg" xmlns:xlink="http://www.w3.org/1999/xlink" version="1.1">
 <!-- Generated by Pixelmator Pro 1.6.3 -->
 <g id="group">
  <g id="group-1">
   <path id="Path" d="M14.802 1.9 L14.802 77.654 1.947 77.654 1.947 1.9 Z" fill="#012169" fill-opacity="1" stroke="none"/>
  </g>
  <g id="group-2">
   <path id="Path-1" d="M180.706 39.586 C180.763 45.059 179.973 50.509 178.364 55.742 176.954 60.371 174.63 64.673 171.531 68.395 168.525 71.932 164.755 74.745 160.504 76.622 155.779 78.652 150.674 79.653 145.53 79.557 140.392 79.656 135.293 78.647 130.582 76.597 126.345 74.699 122.588 71.879 119.586 68.344 116.487 64.625 114.172 60.322 112.779 55.691 111.186 50.453 110.405 45.004 110.463 39.532 110.401 34.087 111.181 28.666 112.777 23.459 114.172 18.877 116.488 14.627 119.584 10.969 122.594 7.482 126.352 4.716 130.581 2.878 140.184 -0.968 150.907 -0.959 160.503 2.904 164.741 4.754 168.508 7.528 171.529 11.023 174.627 14.685 176.951 18.933 178.363 23.513 179.976 28.717 180.767 34.139 180.706 39.586 Z M167.851 39.532 C167.915 35.376 167.327 31.235 166.108 27.26 165.104 23.974 163.487 20.907 161.344 18.218 159.428 15.853 157.01 13.943 154.264 12.624 145.773 8.541 135.579 10.863 129.707 18.218 127.596 20.915 126.008 23.982 125.024 27.26 123.824 31.239 123.246 35.378 123.309 39.532 123.25 43.704 123.83 47.861 125.028 51.858 126.02 55.183 127.607 58.301 129.712 61.063 131.582 63.491 133.985 65.46 136.736 66.818 142.28 69.463 148.725 69.463 154.269 66.818 157.03 65.451 159.449 63.484 161.349 61.063 163.486 58.31 165.1 55.19 166.113 51.858 167.329 47.864 167.917 43.706 167.855 39.532 Z" fill="#012169" fill-opacity="1" stroke="none"/>
   <path id="Path-2" d="M252.527 24.11 C252.535 27.409 251.64 30.648 249.94 33.477 247.988 36.614 245.284 39.217 242.072 41.054 243.661 41.586 245.125 42.436 246.374 43.551 247.547 44.606 248.541 45.844 249.316 47.217 250.08 48.578 250.648 50.041 251.003 51.56 251.362 53.064 251.545 54.604 251.548 56.149 L251.548 67.116 C251.604 68.773 251.945 70.408 252.555 71.949 253.291 73.932 254.211 75.842 255.304 77.654 L241.255 77.654 C240.717 76.797 240.27 75.887 239.921 74.938 239.587 74.039 239.332 73.112 239.159 72.169 239.004 71.325 238.895 70.473 238.832 69.617 238.779 68.82 238.751 68.114 238.75 67.499 L238.75 55.987 C238.746 54.841 238.553 53.703 238.179 52.62 237.796 51.495 237.174 50.467 236.354 49.606 235.417 48.652 234.284 47.911 233.033 47.434 231.434 46.834 229.733 46.548 228.024 46.593 L208.639 46.593 208.639 77.654 195.784 77.654 195.784 1.9 228.02 1.9 C231.602 1.835 235.159 2.501 238.474 3.855 241.349 5.041 243.965 6.773 246.178 8.953 250.21 12.974 252.492 18.417 252.529 24.104 Z M208.639 35.84 L228.024 35.84 C231.043 35.849 233.953 34.714 236.164 32.663 237.249 31.647 238.111 30.417 238.696 29.052 239.328 27.576 239.644 25.986 239.625 24.382 239.639 22.793 239.342 21.216 238.753 19.739 238.205 18.357 237.381 17.101 236.331 16.046 235.276 15.001 234.028 14.171 232.655 13.602 231.189 12.995 229.615 12.69 228.028 12.706 L208.639 12.706 Z" fill="#012169" fill-opacity="1" stroke="none"/>
   <path id="Path-3" d="M297.069 35.46 L316.119 1.9 330.767 1.9 303.275 47.678 303.275 77.654 290.37 77.654 290.37 47.678 262.927 1.9 277.521 1.9 Z" fill="#012169" fill-opacity="1" stroke="none"/>
  </g>
  <g id="group-3">
   <path id="Path-4" d="M13.123 143.247 C13.269 145.698 13.811 148.11 14.729 150.388 15.554 152.438 16.744 154.322 18.242 155.949 19.676 157.494 21.416 158.724 23.353 159.56 25.402 160.428 27.608 160.863 29.834 160.836 31.84 160.843 33.84 160.625 35.797 160.186 37.593 159.796 39.301 159.078 40.834 158.066 42.287 157.088 43.482 155.775 44.318 154.239 45.238 152.453 45.688 150.463 45.624 148.456 45.682 146.551 45.011 144.696 43.745 143.269 42.339 141.759 40.67 140.518 38.819 139.603 36.578 138.47 34.247 137.525 31.849 136.78 29.239 135.951 26.582 135.084 23.877 134.178 21.172 133.273 18.513 132.25 15.9 131.109 13.398 130.037 11.053 128.63 8.931 126.928 6.907 125.293 5.232 123.272 4.002 120.983 2.687 118.395 2.041 115.52 2.123 112.62 2.06 109.565 2.732 106.539 4.083 103.795 5.388 101.244 7.282 99.039 9.609 97.36 12.172 95.535 15.053 94.2 18.104 93.423 21.632 92.506 25.266 92.059 28.912 92.093 33.37 91.952 37.809 92.728 41.953 94.373 45.144 95.696 48.001 97.709 50.317 100.266 52.375 102.595 53.929 105.321 54.885 108.275 55.801 111.073 56.368 113.973 56.573 116.909 L43.453 116.909 C43.299 114.737 42.775 112.607 41.904 110.61 41.161 108.938 40.076 107.44 38.718 106.211 37.421 105.059 35.902 104.181 34.254 103.632 32.533 103.062 30.73 102.778 28.917 102.79 27.216 102.79 25.519 102.963 23.854 103.306 22.28 103.614 20.769 104.185 19.385 104.994 18.106 105.745 17.024 106.787 16.227 108.035 15.392 109.418 14.976 111.012 15.028 112.625 14.97 114.561 15.641 116.449 16.907 117.918 18.304 119.46 19.975 120.73 21.836 121.665 24.073 122.819 26.405 123.782 28.805 124.545 31.42 125.394 34.088 126.281 36.81 127.204 39.531 128.128 42.201 129.149 44.817 130.267 47.317 131.323 49.661 132.712 51.787 134.395 53.803 136.007 55.478 138.002 56.715 140.264 58.026 142.796 58.672 145.617 58.593 148.465 58.673 151.97 57.937 155.446 56.443 158.619 55.049 161.467 52.996 163.943 50.453 165.842 47.721 167.844 44.637 169.317 41.36 170.186 37.606 171.196 33.731 171.69 29.843 171.653 26.125 171.657 22.436 170.994 18.953 169.698 15.477 168.421 12.273 166.506 9.505 164.05 6.692 161.54 4.398 158.505 2.754 155.116 0.979 151.409 0.04 147.359 0.003 143.252 Z" fill="#012169" fill-opacity="1" stroke="none"/>
   <path id="Path-5" d="M92.562 93.993 L92.562 127.174 125.776 93.993 142.275 93.993 111.51 124.566 143.092 169.747 127.573 169.747 102.744 133.473 92.562 143.409 92.562 169.747 79.601 169.747 79.601 93.993 Z" fill="#012169" fill-opacity="1" stroke="none"/>
   <path id="Path-6" d="M174.885 93.993 L174.885 169.747 162.03 169.747 162.03 93.993 Z" fill="#012169" fill-opacity="1" stroke="none"/>
   <path id="Path-7" d="M254.485 93.993 L254.485 104.806 213.701 104.806 213.701 125.272 251.98 125.272 251.98 136.132 213.701 136.132 213.701 158.778 256.233 158.778 256.233 169.745 200.852 169.745 200.852 93.993 Z" fill="#012169" fill-opacity="1" stroke="none"/>
   <path id="Path-8" d="M287.26 143.247 C287.406 145.698 287.948 148.109 288.866 150.388 289.691 152.438 290.88 154.321 292.377 155.949 293.813 157.495 295.556 158.725 297.496 159.56 299.544 160.428 301.751 160.863 303.976 160.836 305.982 160.843 307.981 160.625 309.938 160.186 311.734 159.797 313.442 159.078 314.975 158.066 316.428 157.089 317.624 155.776 318.46 154.239 319.381 152.453 319.831 150.463 319.767 148.456 319.825 146.551 319.153 144.696 317.888 143.269 316.481 141.759 314.811 140.518 312.96 139.603 310.72 138.469 308.388 137.525 305.99 136.78 303.376 135.947 300.718 135.078 298.013 134.174 295.309 133.27 292.65 132.247 290.037 131.105 287.534 130.032 285.19 128.626 283.067 126.923 281.044 125.289 279.368 123.267 278.139 120.978 276.823 118.39 276.177 115.515 276.26 112.615 276.197 109.56 276.87 106.534 278.221 103.791 279.525 101.239 281.42 99.034 283.747 97.356 286.31 95.531 289.19 94.196 292.241 93.418 295.769 92.501 299.404 92.054 303.05 92.089 307.508 91.948 311.947 92.724 316.091 94.368 319.282 95.691 322.139 97.704 324.455 100.261 326.516 102.589 328.073 105.315 329.029 108.27 329.947 111.068 330.514 113.968 330.717 116.905 L317.595 116.905 C317.441 114.733 316.918 112.602 316.046 110.606 315.303 108.934 314.218 107.435 312.86 106.207 311.563 105.054 310.043 104.176 308.395 103.627 306.675 103.058 304.872 102.773 303.059 102.785 301.358 102.785 299.661 102.958 297.995 103.301 296.422 103.608 294.913 104.177 293.531 104.985 292.252 105.735 291.17 106.778 290.373 108.026 289.538 109.408 289.121 111.002 289.174 112.615 289.115 114.552 289.785 116.44 291.053 117.909 292.45 119.45 294.121 120.721 295.981 121.656 298.219 122.81 300.55 123.773 302.951 124.535 305.564 125.385 308.232 126.271 310.955 127.195 313.678 128.119 316.346 129.141 318.96 130.263 321.459 131.319 323.804 132.707 325.929 134.39 327.946 136.001 329.621 137.997 330.856 140.26 332.168 142.791 332.815 145.612 332.735 148.46 332.815 151.965 332.079 155.441 330.584 158.615 329.191 161.463 327.138 163.939 324.594 165.837 321.862 167.84 318.778 169.313 315.501 170.181 311.748 171.192 307.873 171.685 303.986 171.648 300.267 171.652 296.578 170.99 293.094 169.693 289.618 168.416 286.414 166.501 283.646 164.046 280.833 161.535 278.539 158.5 276.893 155.111 275.119 151.404 274.18 147.355 274.144 143.247 Z" fill="#012169" fill-opacity="1" stroke="none"/>
  </g>
 </g>
 <g id="group-4">
  <path id="Path-9" d="M29.507 2.201 L47.283 40.033 65.06 77.864 82.838 40.033 100.616 2.201 Z M74.333 32.499 L65 52.464 55.659 32.499 46.332 12.535 83.668 12.535 Z" fill="#41b0f6" fill-opacity="1" stroke="none"/>
  <path id="Path-10" d="M58.054 62.95 L80.883 2.201 M83.671 12.535 L59.077 65.131 65.06 77.864 82.838 40.033 95.76 12.538 Z" fill="#cc0000" fill-opacity="1" stroke="none"/>
  <path id="Path-11" d="M41.5 2.203 L29.505 2.203 59.077 65.131 64.999 52.465 Z" fill="#012169" fill-opacity="1" stroke="none"/>
 </g>
</svg>
