<?xml version="1.0" encoding="UTF-8"?>
<svg width="66px" height="64px" viewBox="0 0 66 64" xmlns="http://www.w3.org/2000/svg" xmlns:xlink="http://www.w3.org/1999/xlink" version="1.1">
 <!-- Generated by Pixelmator Pro 1.6.1 -->
 <g id="rocket"/>
 <g id="logo">
  <g id="group">
   <path id="Path" d="M56.959 13.048 C56.959 15.186 55.225 16.923 53.085 16.923 50.947 16.923 49.212 15.186 49.212 13.048 49.212 10.91 50.947 9.173 53.085 9.173 55.225 9.173 56.959 10.91 56.959 13.048 Z M66 1.424 C66 0.699 65.353 0.133 64.626 0.133 50.581 0.133 42.874 3.363 32.787 13.412 30.487 15.752 28.106 18.416 25.684 21.282 L10.391 22.089 C9.986 22.129 9.584 22.372 9.342 22.735 L0.301 38.234 C0.018 38.719 0.099 39.361 0.503 39.806 L3.086 42.391 C3.329 42.632 3.693 42.753 4.016 42.753 4.137 42.753 4.259 42.753 4.378 42.71 L15.516 39.283 26.857 50.623 23.427 61.764 C23.306 62.208 23.427 62.694 23.75 63.053 L26.333 65.636 C26.616 65.879 26.938 66 27.261 66 27.504 66 27.704 65.955 27.908 65.84 L43.404 56.798 C43.768 56.557 44.008 56.151 44.053 55.751 L44.859 40.453 C47.725 38.031 50.389 35.651 52.73 33.348 62.287 23.744 66 14.825 66 1.424 Z" fill="#8cc9f0" fill-opacity="1" stroke="none"/>
  </g>
 </g>
</svg>
