<?xml version="1.0" encoding="UTF-8"?>
<svg width="32px" height="32px" viewBox="0 0 32 32" xmlns="http://www.w3.org/2000/svg" xmlns:xlink="http://www.w3.org/1999/xlink" version="1.1">
 <!-- Generated by Pixelmator Pro 1.6.1 -->
 <g id="group">
  <path id="Path" d="M27.378 6.576 C27.378 7.581 26.563 8.397 25.557 8.397 24.552 8.397 23.737 7.581 23.737 6.576 23.737 5.571 24.552 4.755 25.557 4.755 26.563 4.755 27.378 5.571 27.378 6.576 Z M31.627 1.113 C31.627 0.772 31.323 0.506 30.981 0.506 24.38 0.506 20.758 2.024 16.017 6.747 14.936 7.847 13.817 9.099 12.679 10.446 L5.491 10.825 C5.301 10.844 5.112 10.958 4.998 11.129 L0.749 18.413 C0.616 18.641 0.654 18.943 0.844 19.152 L2.058 20.367 C2.172 20.48 2.343 20.537 2.495 20.537 2.552 20.537 2.609 20.537 2.665 20.517 L7.9 18.906 13.23 24.236 11.618 29.472 C11.561 29.681 11.618 29.909 11.77 30.078 L12.984 31.292 C13.117 31.406 13.268 31.463 13.42 31.463 13.534 31.463 13.628 31.442 13.724 31.388 L21.007 27.138 C21.178 27.025 21.291 26.834 21.312 26.646 L21.691 19.456 C23.038 18.318 24.29 17.199 25.39 16.117 29.882 11.603 31.627 7.411 31.627 1.113 Z" fill="#8cc9f0" fill-opacity="1" stroke="none"/>
 </g>
</svg>
