<svg xmlns="http://www.w3.org/2000/svg" viewBox="0 0 214.823 111.125">
  <g style="isolation: isolate">
    <g style="isolation: isolate">
      <path d="M11.521,3.957V53h-8.3V3.957Z" transform="translate(-1.964 -2.727)" fill="#012169"/>
    </g>
    <g style="isolation: isolate">
      <path d="M118.636,28.355a34.455,34.455,0,0,1-1.512,10.459,23.529,23.529,0,0,1-4.412,8.192,19.886,19.886,0,0,1-7.119,5.326,23.33,23.33,0,0,1-9.668,1.9,23.015,23.015,0,0,1-9.651-1.916,20.089,20.089,0,0,1-7.1-5.343,23.3,23.3,0,0,1-4.395-8.192A34.776,34.776,0,0,1,73.284,28.32a34.265,34.265,0,0,1,1.494-10.406,22.811,22.811,0,0,1,4.395-8.086,19.822,19.822,0,0,1,7.1-5.238,25.864,25.864,0,0,1,19.319.017,19.979,19.979,0,0,1,7.119,5.256,23.04,23.04,0,0,1,4.412,8.086A33.953,33.953,0,0,1,118.636,28.355Zm-8.3-.035a25.808,25.808,0,0,0-1.125-7.945,17.708,17.708,0,0,0-3.076-5.854,13.285,13.285,0,0,0-4.571-3.621,13.032,13.032,0,0,0-15.855,3.621,17.826,17.826,0,0,0-3.024,5.854,26.2,26.2,0,0,0-1.107,7.945A26.547,26.547,0,0,0,82.688,36.3a18.624,18.624,0,0,0,3.024,5.959,12.984,12.984,0,0,0,4.535,3.726,13.117,13.117,0,0,0,11.32,0,13.327,13.327,0,0,0,4.571-3.726,18.5,18.5,0,0,0,3.076-5.959A26.152,26.152,0,0,0,110.339,28.32Z" transform="translate(-1.964 -2.727)" fill="#012169"/>
      <path d="M165.007,18.336a11.744,11.744,0,0,1-1.67,6.064,14.418,14.418,0,0,1-5.08,4.905,7.965,7.965,0,0,1,2.777,1.617,9.41,9.41,0,0,1,1.9,2.373,10.769,10.769,0,0,1,1.089,2.812,12.967,12.967,0,0,1,.352,2.971v7.1a9.378,9.378,0,0,0,.65,3.129A21.961,21.961,0,0,0,166.8,53h-9.071a9.413,9.413,0,0,1-.861-1.758,10.714,10.714,0,0,1-.492-1.793,15.289,15.289,0,0,1-.211-1.652q-.052-.774-.053-1.371V38.973a6.762,6.762,0,0,0-.369-2.18,5.31,5.31,0,0,0-1.178-1.951,5.993,5.993,0,0,0-2.144-1.406,8.555,8.555,0,0,0-3.234-.545H136.671V53h-8.3V3.957h20.813a16.992,16.992,0,0,1,6.75,1.266,15.522,15.522,0,0,1,4.974,3.3,14,14,0,0,1,4.1,9.809ZM136.671,25.93h12.516a7.682,7.682,0,0,0,5.255-2.057,6.958,6.958,0,0,0,1.635-2.338,7.476,7.476,0,0,0,.6-3.023,7.952,7.952,0,0,0-.563-3.006,7.112,7.112,0,0,0-1.564-2.391,7.391,7.391,0,0,0-2.373-1.582,7.588,7.588,0,0,0-2.988-.58H136.671Z" transform="translate(-1.964 -2.727)" fill="#012169"/>
      <path d="M193.765,25.684l12.3-21.727h9.457L197.772,33.594V53H189.44V33.594L171.722,3.957h9.422Z" transform="translate(-1.964 -2.727)" fill="#012169"/>
    </g>
    <g style="isolation: isolate">
      <path d="M10.437,95.465a14.732,14.732,0,0,0,1.037,4.623,11.84,11.84,0,0,0,2.268,3.6,9.8,9.8,0,0,0,3.3,2.338,10.371,10.371,0,0,0,4.184.826,17.248,17.248,0,0,0,3.85-.421,9.579,9.579,0,0,0,3.252-1.372,7.045,7.045,0,0,0,2.25-2.478,7.664,7.664,0,0,0,.843-3.744,4.847,4.847,0,0,0-1.213-3.358,11.015,11.015,0,0,0-3.181-2.373,29.067,29.067,0,0,0-4.5-1.828Q20,90.473,17.38,89.594t-5.15-1.987A19.4,19.4,0,0,1,7.73,84.9a12.626,12.626,0,0,1-3.182-3.849,11.272,11.272,0,0,1-1.213-5.414A12.386,12.386,0,0,1,4.6,69.924a11.712,11.712,0,0,1,3.568-4.166,16.441,16.441,0,0,1,5.485-2.549,26.664,26.664,0,0,1,6.978-.861,20.975,20.975,0,0,1,8.42,1.476,15.081,15.081,0,0,1,5.4,3.815A14.641,14.641,0,0,1,37.4,72.824a23.163,23.163,0,0,1,1.09,5.59H30.019a12.411,12.411,0,0,0-1-4.078,8.481,8.481,0,0,0-2.057-2.848,8.279,8.279,0,0,0-2.882-1.67,10.729,10.729,0,0,0-3.446-.545,16.154,16.154,0,0,0-3.269.334A9.22,9.22,0,0,0,14.48,70.7a6.063,6.063,0,0,0-2.039,1.969,5.414,5.414,0,0,0-.774,2.971,5.026,5.026,0,0,0,1.213,3.427,10.9,10.9,0,0,0,3.182,2.426,28.919,28.919,0,0,0,4.5,1.864q2.532.825,5.168,1.722T30.9,87.062a19.417,19.417,0,0,1,4.5,2.672,12.6,12.6,0,0,1,3.182,3.8,10.908,10.908,0,0,1,1.212,5.309,14.676,14.676,0,0,1-1.388,6.574,12.926,12.926,0,0,1-3.867,4.676,17.513,17.513,0,0,1-5.871,2.812,27.536,27.536,0,0,1-7.436.95,20.044,20.044,0,0,1-7.031-1.266,19.115,19.115,0,0,1-6.1-3.656,18.675,18.675,0,0,1-4.359-5.784,18.2,18.2,0,0,1-1.776-7.681Z" transform="translate(-1.964 -2.727)" fill="#012169"/>
      <path d="M61.726,63.578V85.059L83.171,63.578H93.823L73.96,83.371l20.391,29.25H84.331L68.3,89.137,61.726,95.57v17.051H53.358V63.578Z" transform="translate(-1.964 -2.727)" fill="#012169"/>
      <path d="M114.878,63.578v49.043h-8.3V63.578Z" transform="translate(-1.964 -2.727)" fill="#012169"/>
      <path d="M166.271,63.578v7H139.939V83.828h24.715v7.031H139.939V105.52H167.4v7.1H131.643V63.578Z" transform="translate(-1.964 -2.727)" fill="#012169"/>
      <path d="M187.432,95.465a14.76,14.76,0,0,0,1.037,4.623,11.856,11.856,0,0,0,2.267,3.6,9.8,9.8,0,0,0,3.305,2.338,10.371,10.371,0,0,0,4.184.826,17.232,17.232,0,0,0,3.849-.421,9.562,9.562,0,0,0,3.252-1.372,7.026,7.026,0,0,0,2.25-2.478,7.653,7.653,0,0,0,.844-3.744,4.847,4.847,0,0,0-1.213-3.358,11.02,11.02,0,0,0-3.182-2.373,28.985,28.985,0,0,0-4.5-1.828q-2.531-.809-5.15-1.687t-5.15-1.987a19.4,19.4,0,0,1-4.5-2.707,12.626,12.626,0,0,1-3.182-3.849,11.261,11.261,0,0,1-1.213-5.414,12.386,12.386,0,0,1,1.266-5.713,11.7,11.7,0,0,1,3.568-4.166,16.445,16.445,0,0,1,5.484-2.549,26.678,26.678,0,0,1,6.979-.861,20.975,20.975,0,0,1,8.42,1.476,15.068,15.068,0,0,1,5.4,3.815,14.611,14.611,0,0,1,2.953,5.185,23.067,23.067,0,0,1,1.09,5.59h-8.472a12.411,12.411,0,0,0-1-4.078,8.494,8.494,0,0,0-2.057-2.848,8.284,8.284,0,0,0-2.883-1.67,10.723,10.723,0,0,0-3.445-.545,16.178,16.178,0,0,0-3.27.334,9.2,9.2,0,0,0-2.882,1.09,6.063,6.063,0,0,0-2.039,1.969,5.414,5.414,0,0,0-.774,2.971,5.021,5.021,0,0,0,1.213,3.427,10.9,10.9,0,0,0,3.182,2.426,28.838,28.838,0,0,0,4.5,1.864q2.531.825,5.168,1.722t5.168,1.986a19.417,19.417,0,0,1,4.5,2.672,12.577,12.577,0,0,1,3.181,3.8,10.9,10.9,0,0,1,1.213,5.309,14.676,14.676,0,0,1-1.389,6.574,12.906,12.906,0,0,1-3.867,4.676,17.494,17.494,0,0,1-5.871,2.812,27.523,27.523,0,0,1-7.435.95,20.053,20.053,0,0,1-7.032-1.266,19.121,19.121,0,0,1-6.1-3.656,18.694,18.694,0,0,1-4.36-5.784,18.2,18.2,0,0,1-1.775-7.681Z" transform="translate(-1.964 -2.727)" fill="#012169"/>
    </g>
  </g>
  <g>
    <path d="M21.015,4.152,32.492,28.644,43.97,53.136,55.448,28.644,66.926,4.152ZM49.957,23.767,43.931,36.692,37.9,23.767,31.878,10.842H55.984Z" transform="translate(-1.964 -2.727)" fill="#41b0f6"/>
    <path d="M39.446,43.481,54.186,4.152m1.8,6.69L40.107,44.893l3.863,8.243L55.448,28.644l8.343-17.8Z" transform="translate(-1.964 -2.727)" fill="#c00"/>
    <polygon points="26.794 1.426 19.05 1.426 38.143 42.166 41.966 33.966 26.794 1.426" fill="#012169"/>
  </g>
</svg>
